<mxfile host="65bd71144e">
    <diagram id="C5RBs43oDa-KdzZeNtuy" name="User-Stories">
        <mxGraphModel dx="988" dy="577" grid="0" gridSize="10" guides="1" tooltips="1" connect="1" arrows="1" fold="1" page="1" pageScale="1" pageWidth="827" pageHeight="1169" background="#FFECE8" math="0" shadow="0">
            <root>
                <mxCell id="WIyWlLk6GJQsqaUBKTNV-0"/>
                <mxCell id="WIyWlLk6GJQsqaUBKTNV-1" parent="WIyWlLk6GJQsqaUBKTNV-0"/>
                <mxCell id="-pO2XmQCndsoNApmB1Te-9" value="" style="group;fontColor=#000000;" parent="WIyWlLk6GJQsqaUBKTNV-1" vertex="1" connectable="0">
                    <mxGeometry x="40" y="40" width="180" height="120" as="geometry"/>
                </mxCell>
                <mxCell id="-pO2XmQCndsoNApmB1Te-0" value="" style="rounded=0;whiteSpace=wrap;html=1;fontColor=#000000;" parent="-pO2XmQCndsoNApmB1Te-9" vertex="1">
                    <mxGeometry width="180" height="120" as="geometry"/>
                </mxCell>
                <mxCell id="-pO2XmQCndsoNApmB1Te-2" value="" style="endArrow=none;html=1;rounded=0;exitX=0;exitY=0.25;exitDx=0;exitDy=0;entryX=1;entryY=0.25;entryDx=0;entryDy=0;fontColor=#000000;" parent="-pO2XmQCndsoNApmB1Te-9" source="-pO2XmQCndsoNApmB1Te-0" target="-pO2XmQCndsoNApmB1Te-0" edge="1">
                    <mxGeometry width="50" height="50" relative="1" as="geometry">
                        <mxPoint x="350" y="230" as="sourcePoint"/>
                        <mxPoint x="400" y="180" as="targetPoint"/>
                        <Array as="points"/>
                    </mxGeometry>
                </mxCell>
                <mxCell id="-pO2XmQCndsoNApmB1Te-3" value="&lt;div align=&quot;left&quot;&gt;As a &lt;/div&gt;telephone inquiry user" style="text;html=1;strokeColor=#d6b656;fillColor=#fff2cc;align=left;verticalAlign=middle;whiteSpace=wrap;rounded=0;fontColor=#000000;" parent="-pO2XmQCndsoNApmB1Te-9" vertex="1">
                    <mxGeometry width="180" height="30" as="geometry"/>
                </mxCell>
                <mxCell id="-pO2XmQCndsoNApmB1Te-6" value="" style="endArrow=none;html=1;rounded=0;entryX=1;entryY=0.5;entryDx=0;entryDy=0;fontColor=#000000;" parent="-pO2XmQCndsoNApmB1Te-9" target="-pO2XmQCndsoNApmB1Te-0" edge="1">
                    <mxGeometry width="50" height="50" relative="1" as="geometry">
                        <mxPoint y="60" as="sourcePoint"/>
                        <mxPoint x="50" y="10" as="targetPoint"/>
                    </mxGeometry>
                </mxCell>
                <mxCell id="-pO2XmQCndsoNApmB1Te-7" value="&lt;div align=&quot;left&quot;&gt;I want to &lt;/div&gt;check weekly benefit rates" style="text;html=1;strokeColor=#6c8ebf;fillColor=#dae8fc;align=left;verticalAlign=middle;whiteSpace=wrap;rounded=0;fontColor=#000000;" parent="-pO2XmQCndsoNApmB1Te-9" vertex="1">
                    <mxGeometry y="30" width="180" height="30" as="geometry"/>
                </mxCell>
                <mxCell id="-pO2XmQCndsoNApmB1Te-8" value="So that i can inform the customer what they are entitled to per week, and how its made up in a quicker manner" style="text;html=1;strokeColor=#9673a6;fillColor=#e1d5e7;align=left;verticalAlign=middle;whiteSpace=wrap;rounded=0;fontColor=#000000;" parent="-pO2XmQCndsoNApmB1Te-9" vertex="1">
                    <mxGeometry y="60" width="180" height="60" as="geometry"/>
                </mxCell>
                <mxCell id="-pO2XmQCndsoNApmB1Te-10" value="" style="group;fillColor=#fff2cc;strokeColor=#d6b656;fontColor=#000000;" parent="WIyWlLk6GJQsqaUBKTNV-1" vertex="1" connectable="0">
                    <mxGeometry x="240" y="40" width="180" height="120" as="geometry"/>
                </mxCell>
                <mxCell id="-pO2XmQCndsoNApmB1Te-11" value="" style="rounded=0;whiteSpace=wrap;html=1;fontColor=#000000;" parent="-pO2XmQCndsoNApmB1Te-10" vertex="1">
                    <mxGeometry width="180" height="120" as="geometry"/>
                </mxCell>
                <mxCell id="-pO2XmQCndsoNApmB1Te-12" value="" style="endArrow=none;html=1;rounded=0;exitX=0;exitY=0.25;exitDx=0;exitDy=0;entryX=1;entryY=0.25;entryDx=0;entryDy=0;fontColor=#000000;" parent="-pO2XmQCndsoNApmB1Te-10" source="-pO2XmQCndsoNApmB1Te-11" target="-pO2XmQCndsoNApmB1Te-11" edge="1">
                    <mxGeometry width="50" height="50" relative="1" as="geometry">
                        <mxPoint x="350" y="230" as="sourcePoint"/>
                        <mxPoint x="400" y="180" as="targetPoint"/>
                        <Array as="points"/>
                    </mxGeometry>
                </mxCell>
                <mxCell id="-pO2XmQCndsoNApmB1Te-13" value="&lt;div align=&quot;left&quot;&gt;As a &lt;/div&gt;telephone inquiry user" style="text;html=1;strokeColor=#d6b656;fillColor=#fff2cc;align=left;verticalAlign=middle;whiteSpace=wrap;rounded=0;fontColor=#000000;" parent="-pO2XmQCndsoNApmB1Te-10" vertex="1">
                    <mxGeometry width="180" height="30" as="geometry"/>
                </mxCell>
                <mxCell id="-pO2XmQCndsoNApmB1Te-14" value="" style="endArrow=none;html=1;rounded=0;entryX=1;entryY=0.5;entryDx=0;entryDy=0;fontColor=#000000;" parent="-pO2XmQCndsoNApmB1Te-10" target="-pO2XmQCndsoNApmB1Te-11" edge="1">
                    <mxGeometry width="50" height="50" relative="1" as="geometry">
                        <mxPoint y="60" as="sourcePoint"/>
                        <mxPoint x="50" y="10" as="targetPoint"/>
                    </mxGeometry>
                </mxCell>
                <mxCell id="-pO2XmQCndsoNApmB1Te-15" value="I want to check when the last payment was due" style="text;html=1;strokeColor=#6c8ebf;fillColor=#dae8fc;align=left;verticalAlign=middle;whiteSpace=wrap;rounded=0;fontColor=#000000;" parent="-pO2XmQCndsoNApmB1Te-10" vertex="1">
                    <mxGeometry y="30" width="180" height="30" as="geometry"/>
                </mxCell>
                <mxCell id="-pO2XmQCndsoNApmB1Te-16" value="So that i can inform the customer when their last payment was due and improve the time to response via a user interface" style="text;html=1;strokeColor=#9673a6;fillColor=#e1d5e7;align=left;verticalAlign=middle;whiteSpace=wrap;rounded=0;fontColor=#000000;" parent="-pO2XmQCndsoNApmB1Te-10" vertex="1">
                    <mxGeometry y="60" width="180" height="60" as="geometry"/>
                </mxCell>
                <mxCell id="-pO2XmQCndsoNApmB1Te-17" value="" style="group;fontColor=#000000;" parent="WIyWlLk6GJQsqaUBKTNV-1" vertex="1" connectable="0">
                    <mxGeometry x="440" y="40" width="180" height="120" as="geometry"/>
                </mxCell>
                <mxCell id="-pO2XmQCndsoNApmB1Te-18" value="" style="rounded=0;whiteSpace=wrap;html=1;fontColor=#000000;" parent="-pO2XmQCndsoNApmB1Te-17" vertex="1">
                    <mxGeometry width="180" height="120" as="geometry"/>
                </mxCell>
                <mxCell id="-pO2XmQCndsoNApmB1Te-19" value="" style="endArrow=none;html=1;rounded=0;exitX=0;exitY=0.25;exitDx=0;exitDy=0;entryX=1;entryY=0.25;entryDx=0;entryDy=0;fontColor=#000000;" parent="-pO2XmQCndsoNApmB1Te-17" source="-pO2XmQCndsoNApmB1Te-18" target="-pO2XmQCndsoNApmB1Te-18" edge="1">
                    <mxGeometry width="50" height="50" relative="1" as="geometry">
                        <mxPoint x="350" y="230" as="sourcePoint"/>
                        <mxPoint x="400" y="180" as="targetPoint"/>
                        <Array as="points"/>
                    </mxGeometry>
                </mxCell>
                <mxCell id="-pO2XmQCndsoNApmB1Te-20" value="&lt;div align=&quot;left&quot;&gt;As a &lt;/div&gt;telephone inquiry user" style="text;html=1;strokeColor=#d6b656;fillColor=#fff2cc;align=left;verticalAlign=middle;whiteSpace=wrap;rounded=0;fontColor=#000000;" parent="-pO2XmQCndsoNApmB1Te-17" vertex="1">
                    <mxGeometry width="180" height="30" as="geometry"/>
                </mxCell>
                <mxCell id="-pO2XmQCndsoNApmB1Te-21" value="" style="endArrow=none;html=1;rounded=0;entryX=1;entryY=0.5;entryDx=0;entryDy=0;fontColor=#000000;" parent="-pO2XmQCndsoNApmB1Te-17" target="-pO2XmQCndsoNApmB1Te-18" edge="1">
                    <mxGeometry width="50" height="50" relative="1" as="geometry">
                        <mxPoint y="60" as="sourcePoint"/>
                        <mxPoint x="50" y="10" as="targetPoint"/>
                    </mxGeometry>
                </mxCell>
                <mxCell id="-pO2XmQCndsoNApmB1Te-22" value="&lt;div align=&quot;left&quot;&gt;I want to be able to check when the next payment is due&lt;br&gt;&lt;/div&gt;" style="text;html=1;strokeColor=#6c8ebf;fillColor=#dae8fc;align=left;verticalAlign=middle;whiteSpace=wrap;rounded=0;fontColor=#000000;" parent="-pO2XmQCndsoNApmB1Te-17" vertex="1">
                    <mxGeometry y="30" width="180" height="30" as="geometry"/>
                </mxCell>
                <mxCell id="-pO2XmQCndsoNApmB1Te-23" value="So that i can inform the customer when their next payment is due in a timely manner again." style="text;html=1;strokeColor=#9673a6;fillColor=#e1d5e7;align=left;verticalAlign=middle;whiteSpace=wrap;rounded=0;fontColor=#000000;" parent="-pO2XmQCndsoNApmB1Te-17" vertex="1">
                    <mxGeometry y="60" width="180" height="60" as="geometry"/>
                </mxCell>
                <mxCell id="-pO2XmQCndsoNApmB1Te-24" value="" style="group;fontColor=#000000;" parent="WIyWlLk6GJQsqaUBKTNV-1" vertex="1" connectable="0">
                    <mxGeometry x="40" y="180" width="180" height="120" as="geometry"/>
                </mxCell>
                <mxCell id="-pO2XmQCndsoNApmB1Te-25" value="" style="rounded=0;whiteSpace=wrap;html=1;fontColor=#000000;" parent="-pO2XmQCndsoNApmB1Te-24" vertex="1">
                    <mxGeometry width="180" height="120" as="geometry"/>
                </mxCell>
                <mxCell id="-pO2XmQCndsoNApmB1Te-26" value="" style="endArrow=none;html=1;rounded=0;exitX=0;exitY=0.25;exitDx=0;exitDy=0;entryX=1;entryY=0.25;entryDx=0;entryDy=0;fontColor=#000000;" parent="-pO2XmQCndsoNApmB1Te-24" source="-pO2XmQCndsoNApmB1Te-25" target="-pO2XmQCndsoNApmB1Te-25" edge="1">
                    <mxGeometry width="50" height="50" relative="1" as="geometry">
                        <mxPoint x="350" y="230" as="sourcePoint"/>
                        <mxPoint x="400" y="180" as="targetPoint"/>
                        <Array as="points"/>
                    </mxGeometry>
                </mxCell>
                <mxCell id="-pO2XmQCndsoNApmB1Te-27" value="&lt;div align=&quot;left&quot;&gt;As a &lt;/div&gt;telephone inquiry user" style="text;html=1;strokeColor=#d6b656;fillColor=#fff2cc;align=left;verticalAlign=middle;whiteSpace=wrap;rounded=0;fontColor=#000000;" parent="-pO2XmQCndsoNApmB1Te-24" vertex="1">
                    <mxGeometry width="180" height="30" as="geometry"/>
                </mxCell>
                <mxCell id="-pO2XmQCndsoNApmB1Te-28" value="" style="endArrow=none;html=1;rounded=0;entryX=1;entryY=0.5;entryDx=0;entryDy=0;fontColor=#000000;" parent="-pO2XmQCndsoNApmB1Te-24" target="-pO2XmQCndsoNApmB1Te-25" edge="1">
                    <mxGeometry width="50" height="50" relative="1" as="geometry">
                        <mxPoint y="60" as="sourcePoint"/>
                        <mxPoint x="50" y="10" as="targetPoint"/>
                    </mxGeometry>
                </mxCell>
                <mxCell id="-pO2XmQCndsoNApmB1Te-29" value="&lt;div align=&quot;left&quot;&gt;I want to check what bank account to pay to&lt;span style=&quot;white-space: pre&quot;&gt; &lt;/span&gt;&lt;br&gt;&lt;/div&gt;" style="text;html=1;strokeColor=#6c8ebf;fillColor=#dae8fc;align=left;verticalAlign=middle;whiteSpace=wrap;rounded=0;fontColor=#000000;" parent="-pO2XmQCndsoNApmB1Te-24" vertex="1">
                    <mxGeometry y="30" width="180" height="30" as="geometry"/>
                </mxCell>
                <mxCell id="-pO2XmQCndsoNApmB1Te-30" value="So that i can inform the customer what bank account their payment is being sent to to ensure it is correct." style="text;html=1;strokeColor=#9673a6;fillColor=#e1d5e7;align=left;verticalAlign=middle;whiteSpace=wrap;rounded=0;fontColor=#000000;" parent="-pO2XmQCndsoNApmB1Te-24" vertex="1">
                    <mxGeometry y="60" width="180" height="60" as="geometry"/>
                </mxCell>
                <mxCell id="-pO2XmQCndsoNApmB1Te-31" value="" style="group;fontColor=#000000;" parent="WIyWlLk6GJQsqaUBKTNV-1" vertex="1" connectable="0">
                    <mxGeometry x="240" y="180" width="180" height="120" as="geometry"/>
                </mxCell>
                <mxCell id="-pO2XmQCndsoNApmB1Te-32" value="" style="rounded=0;whiteSpace=wrap;html=1;fontColor=#000000;" parent="-pO2XmQCndsoNApmB1Te-31" vertex="1">
                    <mxGeometry width="180" height="120" as="geometry"/>
                </mxCell>
                <mxCell id="-pO2XmQCndsoNApmB1Te-33" value="" style="endArrow=none;html=1;rounded=0;exitX=0;exitY=0.25;exitDx=0;exitDy=0;entryX=1;entryY=0.25;entryDx=0;entryDy=0;fontColor=#000000;" parent="-pO2XmQCndsoNApmB1Te-31" source="-pO2XmQCndsoNApmB1Te-32" target="-pO2XmQCndsoNApmB1Te-32" edge="1">
                    <mxGeometry width="50" height="50" relative="1" as="geometry">
                        <mxPoint x="350" y="230" as="sourcePoint"/>
                        <mxPoint x="400" y="180" as="targetPoint"/>
                        <Array as="points"/>
                    </mxGeometry>
                </mxCell>
                <mxCell id="-pO2XmQCndsoNApmB1Te-34" value="&lt;div align=&quot;left&quot;&gt;As a &lt;/div&gt;telephone inquiry user" style="text;html=1;strokeColor=#d6b656;fillColor=#fff2cc;align=left;verticalAlign=middle;whiteSpace=wrap;rounded=0;fontColor=#000000;" parent="-pO2XmQCndsoNApmB1Te-31" vertex="1">
                    <mxGeometry width="180" height="30" as="geometry"/>
                </mxCell>
                <mxCell id="-pO2XmQCndsoNApmB1Te-35" value="" style="endArrow=none;html=1;rounded=0;entryX=1;entryY=0.5;entryDx=0;entryDy=0;fontColor=#000000;" parent="-pO2XmQCndsoNApmB1Te-31" target="-pO2XmQCndsoNApmB1Te-32" edge="1">
                    <mxGeometry width="50" height="50" relative="1" as="geometry">
                        <mxPoint y="60" as="sourcePoint"/>
                        <mxPoint x="50" y="10" as="targetPoint"/>
                    </mxGeometry>
                </mxCell>
                <mxCell id="-pO2XmQCndsoNApmB1Te-36" value="&lt;div align=&quot;left&quot;&gt;I want to be able to update address information &lt;/div&gt;" style="text;html=1;strokeColor=#6c8ebf;fillColor=#dae8fc;align=left;verticalAlign=middle;whiteSpace=wrap;rounded=0;fontColor=#000000;" parent="-pO2XmQCndsoNApmB1Te-31" vertex="1">
                    <mxGeometry y="30" width="180" height="30" as="geometry"/>
                </mxCell>
                <mxCell id="-pO2XmQCndsoNApmB1Te-37" value="So i can ensure all correspondence is sent to the correct address" style="text;html=1;strokeColor=#9673a6;fillColor=#e1d5e7;align=left;verticalAlign=middle;whiteSpace=wrap;rounded=0;fontColor=#000000;" parent="-pO2XmQCndsoNApmB1Te-31" vertex="1">
                    <mxGeometry y="60" width="180" height="60" as="geometry"/>
                </mxCell>
                <mxCell id="-pO2XmQCndsoNApmB1Te-38" value="" style="group;fontColor=#000000;" parent="WIyWlLk6GJQsqaUBKTNV-1" vertex="1" connectable="0">
                    <mxGeometry x="440" y="180" width="180" height="120" as="geometry"/>
                </mxCell>
                <mxCell id="-pO2XmQCndsoNApmB1Te-39" value="" style="rounded=0;whiteSpace=wrap;html=1;fontColor=#000000;" parent="-pO2XmQCndsoNApmB1Te-38" vertex="1">
                    <mxGeometry width="180" height="120" as="geometry"/>
                </mxCell>
                <mxCell id="-pO2XmQCndsoNApmB1Te-40" value="" style="endArrow=none;html=1;rounded=0;exitX=0;exitY=0.25;exitDx=0;exitDy=0;entryX=1;entryY=0.25;entryDx=0;entryDy=0;fontColor=#000000;" parent="-pO2XmQCndsoNApmB1Te-38" source="-pO2XmQCndsoNApmB1Te-39" target="-pO2XmQCndsoNApmB1Te-39" edge="1">
                    <mxGeometry width="50" height="50" relative="1" as="geometry">
                        <mxPoint x="350" y="230" as="sourcePoint"/>
                        <mxPoint x="400" y="180" as="targetPoint"/>
                        <Array as="points"/>
                    </mxGeometry>
                </mxCell>
                <mxCell id="-pO2XmQCndsoNApmB1Te-41" value="&lt;div align=&quot;left&quot;&gt;As a &lt;/div&gt;telephone inquiry user" style="text;html=1;strokeColor=#d6b656;fillColor=#fff2cc;align=left;verticalAlign=middle;whiteSpace=wrap;rounded=0;fontColor=#000000;" parent="-pO2XmQCndsoNApmB1Te-38" vertex="1">
                    <mxGeometry width="180" height="30" as="geometry"/>
                </mxCell>
                <mxCell id="-pO2XmQCndsoNApmB1Te-42" value="" style="endArrow=none;html=1;rounded=0;entryX=1;entryY=0.5;entryDx=0;entryDy=0;fontColor=#000000;" parent="-pO2XmQCndsoNApmB1Te-38" target="-pO2XmQCndsoNApmB1Te-39" edge="1">
                    <mxGeometry width="50" height="50" relative="1" as="geometry">
                        <mxPoint y="60" as="sourcePoint"/>
                        <mxPoint x="50" y="10" as="targetPoint"/>
                    </mxGeometry>
                </mxCell>
                <mxCell id="-pO2XmQCndsoNApmB1Te-43" value="&lt;div align=&quot;left&quot;&gt;I want to be able to check end dates and start dates &lt;br&gt;&lt;/div&gt;" style="text;html=1;strokeColor=#6c8ebf;fillColor=#dae8fc;align=left;verticalAlign=middle;whiteSpace=wrap;rounded=0;fontColor=#000000;" parent="-pO2XmQCndsoNApmB1Te-38" vertex="1">
                    <mxGeometry y="30" width="180" height="30" as="geometry"/>
                </mxCell>
                <mxCell id="-pO2XmQCndsoNApmB1Te-44" value="So i can inform the customer when they started receiving particular benefits and when those benefits will end/ended." style="text;html=1;strokeColor=#9673a6;fillColor=#e1d5e7;align=left;verticalAlign=middle;whiteSpace=wrap;rounded=0;fontColor=#000000;" parent="-pO2XmQCndsoNApmB1Te-38" vertex="1">
                    <mxGeometry y="60" width="180" height="60" as="geometry"/>
                </mxCell>
                <mxCell id="0" value="" style="group;fontColor=#000000;" vertex="1" connectable="0" parent="WIyWlLk6GJQsqaUBKTNV-1">
                    <mxGeometry x="240" y="320" width="180" height="120" as="geometry"/>
                </mxCell>
                <mxCell id="1" value="" style="rounded=0;whiteSpace=wrap;html=1;fontColor=#000000;" vertex="1" parent="0">
                    <mxGeometry width="180" height="120" as="geometry"/>
                </mxCell>
                <mxCell id="2" value="" style="endArrow=none;html=1;rounded=0;exitX=0;exitY=0.25;exitDx=0;exitDy=0;entryX=1;entryY=0.25;entryDx=0;entryDy=0;fontColor=#000000;" edge="1" parent="0" source="1" target="1">
                    <mxGeometry width="50" height="50" relative="1" as="geometry">
                        <mxPoint x="350" y="230" as="sourcePoint"/>
                        <mxPoint x="400" y="180" as="targetPoint"/>
                        <Array as="points"/>
                    </mxGeometry>
                </mxCell>
                <mxCell id="3" value="&lt;div align=&quot;left&quot;&gt;As a &lt;/div&gt;telephone inquiry user" style="text;html=1;strokeColor=#d6b656;fillColor=#fff2cc;align=left;verticalAlign=middle;whiteSpace=wrap;rounded=0;fontColor=#000000;" vertex="1" parent="0">
                    <mxGeometry width="180" height="30" as="geometry"/>
                </mxCell>
                <mxCell id="4" value="" style="endArrow=none;html=1;rounded=0;entryX=1;entryY=0.5;entryDx=0;entryDy=0;fontColor=#000000;" edge="1" parent="0" target="1">
                    <mxGeometry width="50" height="50" relative="1" as="geometry">
                        <mxPoint y="60" as="sourcePoint"/>
                        <mxPoint x="50" y="10" as="targetPoint"/>
                    </mxGeometry>
                </mxCell>
                <mxCell id="5" value="&lt;div align=&quot;left&quot;&gt;&lt;br&gt;&lt;/div&gt;" style="text;html=1;strokeColor=#6c8ebf;fillColor=#dae8fc;align=left;verticalAlign=middle;whiteSpace=wrap;rounded=0;fontColor=#000000;" vertex="1" parent="0">
                    <mxGeometry y="30" width="180" height="30" as="geometry"/>
                </mxCell>
                <mxCell id="6" value="" style="text;html=1;strokeColor=#9673a6;fillColor=#e1d5e7;align=left;verticalAlign=middle;whiteSpace=wrap;rounded=0;fontColor=#000000;" vertex="1" parent="0">
                    <mxGeometry y="60" width="180" height="60" as="geometry"/>
                </mxCell>
                <mxCell id="7" value="" style="group;fontColor=#000000;" vertex="1" connectable="0" parent="WIyWlLk6GJQsqaUBKTNV-1">
                    <mxGeometry x="440" y="321" width="180" height="120" as="geometry"/>
                </mxCell>
                <mxCell id="8" value="" style="rounded=0;whiteSpace=wrap;html=1;fontColor=#000000;" vertex="1" parent="7">
                    <mxGeometry width="180" height="120" as="geometry"/>
                </mxCell>
                <mxCell id="9" value="" style="endArrow=none;html=1;rounded=0;exitX=0;exitY=0.25;exitDx=0;exitDy=0;entryX=1;entryY=0.25;entryDx=0;entryDy=0;fontColor=#000000;" edge="1" parent="7" source="8" target="8">
                    <mxGeometry width="50" height="50" relative="1" as="geometry">
                        <mxPoint x="350" y="230" as="sourcePoint"/>
                        <mxPoint x="400" y="180" as="targetPoint"/>
                        <Array as="points"/>
                    </mxGeometry>
                </mxCell>
                <mxCell id="10" value="&lt;div align=&quot;left&quot;&gt;As a &lt;/div&gt;telephone inquiry user" style="text;html=1;strokeColor=#d6b656;fillColor=#fff2cc;align=left;verticalAlign=middle;whiteSpace=wrap;rounded=0;fontColor=#000000;" vertex="1" parent="7">
                    <mxGeometry width="180" height="30" as="geometry"/>
                </mxCell>
                <mxCell id="11" value="" style="endArrow=none;html=1;rounded=0;entryX=1;entryY=0.5;entryDx=0;entryDy=0;fontColor=#000000;" edge="1" parent="7" target="8">
                    <mxGeometry width="50" height="50" relative="1" as="geometry">
                        <mxPoint y="60" as="sourcePoint"/>
                        <mxPoint x="50" y="10" as="targetPoint"/>
                    </mxGeometry>
                </mxCell>
                <mxCell id="12" value="&lt;div align=&quot;left&quot;&gt;&lt;br&gt;&lt;/div&gt;" style="text;html=1;strokeColor=#6c8ebf;fillColor=#dae8fc;align=left;verticalAlign=middle;whiteSpace=wrap;rounded=0;fontColor=#000000;" vertex="1" parent="7">
                    <mxGeometry y="30" width="180" height="30" as="geometry"/>
                </mxCell>
                <mxCell id="13" value="" style="text;html=1;strokeColor=#9673a6;fillColor=#e1d5e7;align=left;verticalAlign=middle;whiteSpace=wrap;rounded=0;fontColor=#000000;" vertex="1" parent="7">
                    <mxGeometry y="60" width="180" height="60" as="geometry"/>
                </mxCell>
                <mxCell id="14" value="" style="group;fontColor=#000000;" vertex="1" connectable="0" parent="WIyWlLk6GJQsqaUBKTNV-1">
                    <mxGeometry x="40" y="320" width="180" height="120" as="geometry"/>
                </mxCell>
                <mxCell id="15" value="" style="rounded=0;whiteSpace=wrap;html=1;fontColor=#000000;" vertex="1" parent="14">
                    <mxGeometry width="180" height="120" as="geometry"/>
                </mxCell>
                <mxCell id="16" value="" style="endArrow=none;html=1;rounded=0;exitX=0;exitY=0.25;exitDx=0;exitDy=0;entryX=1;entryY=0.25;entryDx=0;entryDy=0;fontColor=#000000;" edge="1" parent="14" source="15" target="15">
                    <mxGeometry width="50" height="50" relative="1" as="geometry">
                        <mxPoint x="350" y="230" as="sourcePoint"/>
                        <mxPoint x="400" y="180" as="targetPoint"/>
                        <Array as="points"/>
                    </mxGeometry>
                </mxCell>
                <mxCell id="17" value="&lt;div align=&quot;left&quot;&gt;As a &lt;/div&gt;telephone inquiry user" style="text;html=1;strokeColor=#d6b656;fillColor=#fff2cc;align=left;verticalAlign=middle;whiteSpace=wrap;rounded=0;fontColor=#000000;" vertex="1" parent="14">
                    <mxGeometry width="180" height="30" as="geometry"/>
                </mxCell>
                <mxCell id="18" value="" style="endArrow=none;html=1;rounded=0;entryX=1;entryY=0.5;entryDx=0;entryDy=0;fontColor=#000000;" edge="1" parent="14" target="15">
                    <mxGeometry width="50" height="50" relative="1" as="geometry">
                        <mxPoint y="60" as="sourcePoint"/>
                        <mxPoint x="50" y="10" as="targetPoint"/>
                    </mxGeometry>
                </mxCell>
                <mxCell id="19" value="&lt;div align=&quot;left&quot;&gt;&lt;br&gt;&lt;/div&gt;" style="text;html=1;strokeColor=#6c8ebf;fillColor=#dae8fc;align=left;verticalAlign=middle;whiteSpace=wrap;rounded=0;fontColor=#000000;" vertex="1" parent="14">
                    <mxGeometry y="30" width="180" height="30" as="geometry"/>
                </mxCell>
                <mxCell id="20" value="" style="text;html=1;strokeColor=#9673a6;fillColor=#e1d5e7;align=left;verticalAlign=middle;whiteSpace=wrap;rounded=0;fontColor=#000000;" vertex="1" parent="14">
                    <mxGeometry y="60" width="180" height="60" as="geometry"/>
                </mxCell>
                <mxCell id="21" style="edgeStyle=none;html=1;exitX=0.25;exitY=0;exitDx=0;exitDy=0;fontColor=#000000;" edge="1" parent="WIyWlLk6GJQsqaUBKTNV-1" source="17">
                    <mxGeometry relative="1" as="geometry">
                        <mxPoint x="85" y="320" as="targetPoint"/>
                    </mxGeometry>
                </mxCell>
            </root>
        </mxGraphModel>
    </diagram>
</mxfile>